<svg xmlns="http://www.w3.org/2000/svg" xmlns:xlink="http://www.w3.org/1999/xlink" width="500" zoomAndPan="magnify" viewBox="0 0 375 98.249997" height="131" preserveAspectRatio="xMidYMid meet" version="1.0"><defs><g/></defs><g fill="#ff00ff" fill-opacity="1"><g transform="translate(13.98133, 79.376939)"><g><path d="M 25.828125 0 L 25.828125 -19.859375 L 17.875 -19.859375 L 17.875 0 L 1.984375 0 L 1.984375 -51.640625 L 17.875 -51.640625 L 17.875 -31.78125 L 25.828125 -31.78125 L 25.828125 -51.640625 L 41.71875 -51.640625 L 41.71875 0 Z M 25.828125 0 "/></g></g></g><g fill="#ff00ff" fill-opacity="1"><g transform="translate(57.67518, 79.376939)"><g><path d="M 41.71875 -51.640625 L 41.71875 0 L 1.984375 0 L 1.984375 -13.90625 L 25.828125 -13.90625 L 25.828125 -19.859375 L 1.984375 -19.859375 L 1.984375 -51.640625 L 17.875 -51.640625 L 17.875 -31.78125 L 25.828125 -31.78125 L 25.828125 -51.640625 Z M 41.71875 -51.640625 "/></g></g></g><g fill="#ff00ff" fill-opacity="1"><g transform="translate(101.369031, 79.376939)"><g><path d="M 41.71875 -51.640625 L 41.71875 -19.859375 L 17.875 -19.859375 L 17.875 0 L 1.984375 3.96875 L 1.984375 -51.640625 Z M 25.828125 -31.78125 L 25.828125 -39.71875 L 17.875 -39.71875 L 17.875 -31.78125 Z M 25.828125 -31.78125 "/></g></g></g><g fill="#ff00ff" fill-opacity="1"><g transform="translate(145.062881, 79.376939)"><g><path d="M 41.71875 0 L 25.828125 3.96875 L 25.828125 -19.859375 L 17.875 -19.859375 L 17.875 0 L 1.984375 0 L 1.984375 -51.640625 L 41.71875 -51.640625 L 41.71875 -29.796875 L 25.828125 -25.828125 L 41.71875 -25.828125 Z M 25.828125 -31.78125 L 25.828125 -39.71875 L 17.875 -39.71875 L 17.875 -31.78125 Z M 25.828125 -31.78125 "/></g></g></g><g fill="#ff00ff" fill-opacity="1"><g transform="translate(188.756731, 79.376939)"><g><path d="M 41.71875 -51.640625 L 41.71875 -19.859375 L 17.875 -19.859375 L 17.875 0 L 1.984375 3.96875 L 1.984375 -51.640625 Z M 25.828125 -31.78125 L 25.828125 -39.71875 L 17.875 -39.71875 L 17.875 -31.78125 Z M 25.828125 -31.78125 "/></g></g></g><g fill="#ff00ff" fill-opacity="1"><g transform="translate(232.450581, 79.376939)"><g><path d="M 41.71875 -51.640625 L 41.71875 0 L 1.984375 0 L 1.984375 -51.640625 L 17.875 -51.640625 L 17.875 -11.921875 L 25.828125 -11.921875 L 25.828125 -51.640625 Z M 41.71875 -51.640625 "/></g></g></g><g fill="#ff00ff" fill-opacity="1"><g transform="translate(276.144432, 79.376939)"><g><path d="M 1.984375 0 L 1.984375 -51.640625 L 41.71875 -51.640625 L 41.71875 0 L 25.828125 3.96875 L 25.828125 -39.71875 L 17.875 -39.71875 L 17.875 0 Z M 1.984375 0 "/></g></g></g><g fill="#ff00ff" fill-opacity="1"><g transform="translate(319.838282, 79.376939)"><g><path d="M 25.828125 3.96875 L 25.828125 -19.859375 L 17.875 -19.859375 L 17.875 0 L 1.984375 0 L 1.984375 -51.640625 L 17.875 -51.640625 L 17.875 -31.78125 L 25.828125 -31.78125 L 25.828125 -51.640625 L 41.71875 -51.640625 L 41.71875 -29.796875 L 25.828125 -25.828125 L 41.71875 -25.828125 L 41.71875 0 Z M 25.828125 3.96875 "/></g></g></g><g fill="#00ffff" fill-opacity="1"><g transform="translate(11.437904, 73.385004)"><g><path d="M 25.828125 0 L 25.828125 -19.859375 L 17.875 -19.859375 L 17.875 0 L 1.984375 0 L 1.984375 -51.640625 L 17.875 -51.640625 L 17.875 -31.78125 L 25.828125 -31.78125 L 25.828125 -51.640625 L 41.71875 -51.640625 L 41.71875 0 Z M 25.828125 0 "/></g></g></g><g fill="#00ffff" fill-opacity="1"><g transform="translate(55.131754, 73.385004)"><g><path d="M 41.71875 -51.640625 L 41.71875 0 L 1.984375 0 L 1.984375 -13.90625 L 25.828125 -13.90625 L 25.828125 -19.859375 L 1.984375 -19.859375 L 1.984375 -51.640625 L 17.875 -51.640625 L 17.875 -31.78125 L 25.828125 -31.78125 L 25.828125 -51.640625 Z M 41.71875 -51.640625 "/></g></g></g><g fill="#00ffff" fill-opacity="1"><g transform="translate(98.825605, 73.385004)"><g><path d="M 41.71875 -51.640625 L 41.71875 -19.859375 L 17.875 -19.859375 L 17.875 0 L 1.984375 3.96875 L 1.984375 -51.640625 Z M 25.828125 -31.78125 L 25.828125 -39.71875 L 17.875 -39.71875 L 17.875 -31.78125 Z M 25.828125 -31.78125 "/></g></g></g><g fill="#00ffff" fill-opacity="1"><g transform="translate(142.519455, 73.385004)"><g><path d="M 41.71875 0 L 25.828125 3.96875 L 25.828125 -19.859375 L 17.875 -19.859375 L 17.875 0 L 1.984375 0 L 1.984375 -51.640625 L 41.71875 -51.640625 L 41.71875 -29.796875 L 25.828125 -25.828125 L 41.71875 -25.828125 Z M 25.828125 -31.78125 L 25.828125 -39.71875 L 17.875 -39.71875 L 17.875 -31.78125 Z M 25.828125 -31.78125 "/></g></g></g><g fill="#00ffff" fill-opacity="1"><g transform="translate(186.213305, 73.385004)"><g><path d="M 41.71875 -51.640625 L 41.71875 -19.859375 L 17.875 -19.859375 L 17.875 0 L 1.984375 3.96875 L 1.984375 -51.640625 Z M 25.828125 -31.78125 L 25.828125 -39.71875 L 17.875 -39.71875 L 17.875 -31.78125 Z M 25.828125 -31.78125 "/></g></g></g><g fill="#00ffff" fill-opacity="1"><g transform="translate(229.907156, 73.385004)"><g><path d="M 41.71875 -51.640625 L 41.71875 0 L 1.984375 0 L 1.984375 -51.640625 L 17.875 -51.640625 L 17.875 -11.921875 L 25.828125 -11.921875 L 25.828125 -51.640625 Z M 41.71875 -51.640625 "/></g></g></g><g fill="#00ffff" fill-opacity="1"><g transform="translate(273.601006, 73.385004)"><g><path d="M 1.984375 0 L 1.984375 -51.640625 L 41.71875 -51.640625 L 41.71875 0 L 25.828125 3.96875 L 25.828125 -39.71875 L 17.875 -39.71875 L 17.875 0 Z M 1.984375 0 "/></g></g></g><g fill="#00ffff" fill-opacity="1"><g transform="translate(317.294856, 73.385004)"><g><path d="M 25.828125 3.96875 L 25.828125 -19.859375 L 17.875 -19.859375 L 17.875 0 L 1.984375 0 L 1.984375 -51.640625 L 17.875 -51.640625 L 17.875 -31.78125 L 25.828125 -31.78125 L 25.828125 -51.640625 L 41.71875 -51.640625 L 41.71875 -29.796875 L 25.828125 -25.828125 L 41.71875 -25.828125 L 41.71875 0 Z M 25.828125 3.96875 "/></g></g></g><g fill="#ffffff" fill-opacity="1"><g transform="translate(12.709617, 76.380972)"><g><path d="M 25.828125 0 L 25.828125 -19.859375 L 17.875 -19.859375 L 17.875 0 L 1.984375 0 L 1.984375 -51.640625 L 17.875 -51.640625 L 17.875 -31.78125 L 25.828125 -31.78125 L 25.828125 -51.640625 L 41.71875 -51.640625 L 41.71875 0 Z M 25.828125 0 "/></g></g></g><g fill="#ffffff" fill-opacity="1"><g transform="translate(56.403467, 76.380972)"><g><path d="M 41.71875 -51.640625 L 41.71875 0 L 1.984375 0 L 1.984375 -13.90625 L 25.828125 -13.90625 L 25.828125 -19.859375 L 1.984375 -19.859375 L 1.984375 -51.640625 L 17.875 -51.640625 L 17.875 -31.78125 L 25.828125 -31.78125 L 25.828125 -51.640625 Z M 41.71875 -51.640625 "/></g></g></g><g fill="#ffffff" fill-opacity="1"><g transform="translate(100.097318, 76.380972)"><g><path d="M 41.71875 -51.640625 L 41.71875 -19.859375 L 17.875 -19.859375 L 17.875 0 L 1.984375 3.96875 L 1.984375 -51.640625 Z M 25.828125 -31.78125 L 25.828125 -39.71875 L 17.875 -39.71875 L 17.875 -31.78125 Z M 25.828125 -31.78125 "/></g></g></g><g fill="#ffffff" fill-opacity="1"><g transform="translate(143.791168, 76.380972)"><g><path d="M 41.71875 0 L 25.828125 3.96875 L 25.828125 -19.859375 L 17.875 -19.859375 L 17.875 0 L 1.984375 0 L 1.984375 -51.640625 L 41.71875 -51.640625 L 41.71875 -29.796875 L 25.828125 -25.828125 L 41.71875 -25.828125 Z M 25.828125 -31.78125 L 25.828125 -39.71875 L 17.875 -39.71875 L 17.875 -31.78125 Z M 25.828125 -31.78125 "/></g></g></g><g fill="#ffffff" fill-opacity="1"><g transform="translate(187.485018, 76.380972)"><g><path d="M 41.71875 -51.640625 L 41.71875 -19.859375 L 17.875 -19.859375 L 17.875 0 L 1.984375 3.96875 L 1.984375 -51.640625 Z M 25.828125 -31.78125 L 25.828125 -39.71875 L 17.875 -39.71875 L 17.875 -31.78125 Z M 25.828125 -31.78125 "/></g></g></g><g fill="#ffffff" fill-opacity="1"><g transform="translate(231.178869, 76.380972)"><g><path d="M 41.71875 -51.640625 L 41.71875 0 L 1.984375 0 L 1.984375 -51.640625 L 17.875 -51.640625 L 17.875 -11.921875 L 25.828125 -11.921875 L 25.828125 -51.640625 Z M 41.71875 -51.640625 "/></g></g></g><g fill="#ffffff" fill-opacity="1"><g transform="translate(274.872719, 76.380972)"><g><path d="M 1.984375 0 L 1.984375 -51.640625 L 41.71875 -51.640625 L 41.71875 0 L 25.828125 3.96875 L 25.828125 -39.71875 L 17.875 -39.71875 L 17.875 0 Z M 1.984375 0 "/></g></g></g><g fill="#ffffff" fill-opacity="1"><g transform="translate(318.566569, 76.380972)"><g><path d="M 25.828125 3.96875 L 25.828125 -19.859375 L 17.875 -19.859375 L 17.875 0 L 1.984375 0 L 1.984375 -51.640625 L 17.875 -51.640625 L 17.875 -31.78125 L 25.828125 -31.78125 L 25.828125 -51.640625 L 41.71875 -51.640625 L 41.71875 -29.796875 L 25.828125 -25.828125 L 41.71875 -25.828125 L 41.71875 0 Z M 25.828125 3.96875 "/></g></g></g></svg>